<svg width="56" height="56" viewBox="0 0 56 56" fill="none" xmlns="http://www.w3.org/2000/svg">
<rect width="56" height="56" transform="translate(56 56) rotate(180)" fill="white" fill-opacity="0.2"/>
<path d="M33.0103 28.0189C33.0105 28.237 32.9643 28.4526 32.8746 28.6514C32.7849 28.8501 32.6539 29.0275 32.4903 29.1716L25.0556 35.7123C24.8092 35.919 24.4918 36.0211 24.1711 35.9968C23.8504 35.9725 23.5519 35.8237 23.3395 35.5822C23.1271 35.3407 23.0176 35.0257 23.0345 34.7046C23.0513 34.3834 23.1931 34.0816 23.4296 33.8636L29.9309 28.1443C29.9488 28.1286 29.9631 28.1093 29.9729 28.0877C29.9827 28.0661 29.9877 28.0427 29.9877 28.0189C29.9877 27.9952 29.9827 27.9717 29.9729 27.9501C29.9631 27.9285 29.9488 27.9092 29.9309 27.8936L23.4296 22.1743C23.3039 22.0688 23.2005 21.9392 23.1256 21.7932C23.0506 21.6472 23.0057 21.4877 22.9933 21.324C22.9809 21.1604 23.0013 20.9959 23.0534 20.8403C23.1054 20.6847 23.1881 20.541 23.2965 20.4178C23.4049 20.2946 23.5368 20.1942 23.6845 20.1227C23.8322 20.0512 23.9927 20.0099 24.1566 20.0014C24.3205 19.9928 24.4845 20.017 24.6388 20.0727C24.7932 20.1284 24.9349 20.2144 25.0556 20.3256L32.4876 26.8643C32.6516 27.0086 32.7831 27.1862 32.8732 27.3853C32.9633 27.5844 33.01 27.8004 33.0103 28.0189Z" fill="white"/>
</svg>
