<svg width="56" height="56" viewBox="0 0 56 56" fill="none" xmlns="http://www.w3.org/2000/svg">
<rect width="56" height="56" fill="white" fill-opacity="0.2"/>
<path d="M22.9897 27.9811C22.9895 27.763 23.0357 27.5474 23.1254 27.3486C23.2151 27.1499 23.3461 26.9725 23.5097 26.8284L30.9444 20.2877C31.1908 20.081 31.5082 19.9789 31.8289 20.0032C32.1496 20.0275 32.4481 20.1763 32.6605 20.4178C32.8729 20.6593 32.9824 20.9743 32.9655 21.2954C32.9487 21.6166 32.8069 21.9184 32.5704 22.1364L26.0691 27.8557C26.0512 27.8714 26.0369 27.8907 26.0271 27.9123C26.0173 27.9339 26.0123 27.9573 26.0123 27.9811C26.0123 28.0048 26.0173 28.0283 26.0271 28.0499C26.0369 28.0715 26.0512 28.0908 26.0691 28.1064L32.5704 33.8257C32.6961 33.9312 32.7995 34.0608 32.8744 34.2068C32.9494 34.3528 32.9943 34.5123 33.0067 34.676C33.0191 34.8396 32.9987 35.0041 32.9466 35.1597C32.8946 35.3153 32.8119 35.459 32.7035 35.5822C32.5951 35.7055 32.4632 35.8058 32.3155 35.8773C32.1678 35.9488 32.0073 35.9901 31.8434 35.9986C31.6795 36.0072 31.5155 35.983 31.3612 35.9273C31.2068 35.8716 31.0651 35.7856 30.9444 35.6744L23.5124 29.1357C23.3484 28.9914 23.2169 28.8138 23.1268 28.6147C23.0367 28.4156 22.99 28.1996 22.9897 27.9811Z" fill="white"/>
</svg>
