<svg width="24" height="24" viewBox="0 0 24 24" fill="none" xmlns="http://www.w3.org/2000/svg">
<path d="M19.75 8.25C19.75 12.471 16.817 14.899 14.619 17.25C13.303 18.658 12.25 23.25 12.25 23.25C12.25 23.25 11.2 18.661 9.887 17.257C7.687 14.907 4.75 12.475 4.75 8.25C4.75 6.26088 5.54018 4.35322 6.9467 2.9467C8.35322 1.54018 10.2609 0.75 12.25 0.75C14.2391 0.75 16.1468 1.54018 17.5533 2.9467C18.9598 4.35322 19.75 6.26088 19.75 8.25V8.25Z" stroke="#7C7666" stroke-width="1.5" stroke-linecap="round" stroke-linejoin="round"/>
<path d="M12.25 11.25C13.9069 11.25 15.25 9.90685 15.25 8.25C15.25 6.59315 13.9069 5.25 12.25 5.25C10.5931 5.25 9.25 6.59315 9.25 8.25C9.25 9.90685 10.5931 11.25 12.25 11.25Z" stroke="#7C7666" stroke-width="1.5" stroke-linecap="round" stroke-linejoin="round"/>
</svg>
