<svg width="221" height="240" viewBox="0 0 221 240" fill="none" xmlns="http://www.w3.org/2000/svg">
<path d="M189.712 79.1539C189.019 78.5385 188.25 78.0001 187.481 77.5385C181.942 74.0001 173.558 71.5385 175.25 63.5385C176.019 60.0001 177.096 58.5385 174.019 56.0001C171.327 53.8462 168.712 51.5385 166.25 49.1539C161.481 44.5385 155.481 39.4616 152.558 33.2308C151.865 31.7693 151.019 30.8462 152.712 29.5385C154.327 30.8462 154.173 34.6155 157.25 34.077C159.173 33.7693 160.865 30.3847 160.712 28.6924C160.481 26.3847 157.942 24.7693 156.404 23.2308C154.789 21.6924 152.404 18.2308 150.558 17.3078C148.019 16.0001 147.404 18.3847 146.173 20.3078C144.558 22.9231 144.327 23.7693 141.789 21.8462C137.712 18.6924 133.712 19.4616 128.481 19.3847C122.635 19.3078 117.481 16.6924 111.404 17.077C110.327 19.8462 111.942 22.7693 111.558 25.5385C108.558 25.6924 105.789 24.3847 102.865 23.6924C99.7116 22.9231 96.6347 22.6155 93.6347 21.3847C91.0193 20.3078 87.7886 19.3847 88.327 16.1539C88.8655 13.1539 92.1732 12.3078 93.4039 10.0001C94.7886 7.23084 90.7116 4.23084 88.7886 2.30776C86.1732 -0.30762 85.4039 0.230841 82.4039 2.15392C80.2501 3.53853 77.6347 5.61546 75.0963 5.69238C72.2501 5.7693 68.7886 4.92315 65.8655 4.61546C62.9424 4.30776 58.9424 3.23084 55.9424 4.07699C52.5578 5.00007 53.1732 8.7693 51.7116 11.4616C49.0193 11.4616 47.4809 8.46161 45.327 7.15392C42.6347 5.53853 41.2501 7.23084 38.327 8.61546C35.8655 9.7693 31.327 10.8462 29.6347 12.8462C27.327 15.5385 30.0193 17.6924 30.4809 20.6155C31.0193 24.2308 21.0962 29.4616 18.0193 31.6155C15.6347 33.2308 13.7886 33.5385 12.4809 36.077C11.4809 38.0001 10.8655 40.1539 9.86548 42.077L189.712 79.1539Z" fill="#926D00"/>
<mask id="mask0" style="mask-type:alpha" maskUnits="userSpaceOnUse" x="9" y="0" width="181" height="80">
<path d="M189.712 79.1539C189.019 78.5385 188.25 78.0001 187.481 77.5385C181.942 74.0001 173.558 71.5385 175.25 63.5385C176.019 60.0001 177.096 58.5385 174.019 56.0001C171.327 53.8462 168.712 51.5385 166.25 49.1539C161.481 44.5385 155.481 39.4616 152.558 33.2308C151.865 31.7693 151.019 30.8462 152.712 29.5385C154.327 30.8462 154.173 34.6155 157.25 34.077C159.173 33.7693 160.865 30.3847 160.712 28.6924C160.481 26.3847 157.942 24.7693 156.404 23.2308C154.789 21.6924 152.404 18.2308 150.558 17.3078C148.019 16.0001 147.404 18.3847 146.173 20.3078C144.558 22.9231 144.327 23.7693 141.789 21.8462C137.712 18.6924 133.712 19.4616 128.481 19.3847C122.635 19.3078 117.481 16.6924 111.404 17.077C110.327 19.8462 111.942 22.7693 111.558 25.5385C108.558 25.6924 105.789 24.3847 102.865 23.6924C99.7116 22.9231 96.6347 22.6155 93.6347 21.3847C91.0193 20.3078 87.7886 19.3847 88.327 16.1539C88.8655 13.1539 92.1732 12.3078 93.4039 10.0001C94.7886 7.23084 90.7116 4.23084 88.7886 2.30776C86.1732 -0.30762 85.4039 0.230841 82.4039 2.15392C80.2501 3.53853 77.6347 5.61546 75.0963 5.69238C72.2501 5.7693 68.7886 4.92315 65.8655 4.61546C62.9424 4.30776 58.9424 3.23084 55.9424 4.07699C52.5578 5.00007 53.1732 8.7693 51.7116 11.4616C49.0193 11.4616 47.4809 8.46161 45.327 7.15392C42.6347 5.53853 41.2501 7.23084 38.327 8.61546C35.8655 9.7693 31.327 10.8462 29.6347 12.8462C27.327 15.5385 30.0193 17.6924 30.4809 20.6155C31.0193 24.2308 21.0962 29.4616 18.0193 31.6155C15.6347 33.2308 13.7886 33.5385 12.4809 36.077C11.4809 38.0001 10.8655 40.1539 9.86548 42.077L189.712 79.1539Z" fill="#2A9E95"/>
</mask>
<g mask="url(#mask0)">
<path d="M44.4808 2.47955e-05L41.2501 18.8462C40.8655 21.2308 44.5578 21.9231 45.0193 19.4616L48.2501 0.615409C48.6347 -1.76921 44.8655 -2.46151 44.4808 2.47955e-05Z" fill="#FDC10E"/>
<path d="M51.7884 1.38467L49.7884 20.4616C49.5576 22.9231 53.3268 23.3078 53.5576 20.8462L55.5576 1.76929C55.8653 -0.69225 52.0191 -1.07687 51.7884 1.38467Z" fill="#FDC10E"/>
<path d="M61.2499 3.46152L56.7883 22.0769C56.2499 24.4615 59.9422 25.3077 60.4807 22.9231L64.9422 4.30767C65.4806 1.99998 61.7883 1.0769 61.2499 3.46152Z" fill="#FDC10E"/>
<path d="M72.25 26.4616L91.0961 29.6923C93.4808 30.077 94.1731 26.3846 91.7115 25.9231L72.8654 22.6923C70.4807 22.3077 69.8654 26 72.25 26.4616Z" fill="#FDC10E"/>
<path d="M73.6346 19.1539L92.7116 21.1539C95.1731 21.3847 95.5577 17.6154 93.0962 17.3847L74.0962 15.3847C71.6346 15.077 71.25 18.8462 73.6346 19.1539Z" fill="#FDC10E"/>
<path d="M75.7885 9.69237L94.4039 14.1539C96.7885 14.6924 97.6346 11.0001 95.25 10.4616L76.6346 6.00006C74.25 5.38468 73.4039 9.07698 75.7885 9.69237Z" fill="#FDC10E"/>
<path d="M105.481 12.7693L102.25 31.6154C101.865 34 105.558 34.6923 106.019 32.2308L109.25 13.3846C109.635 11 105.942 10.3846 105.481 12.7693Z" fill="#FDC10E"/>
<path d="M112.788 14.1539L110.788 33.2308C110.558 35.6924 114.327 36.077 114.558 33.6154L116.558 14.5385C116.865 12.1539 113.096 11.6924 112.788 14.1539Z" fill="#FDC10E"/>
<path d="M122.25 16.2308L117.865 34.9231C117.327 37.3078 121.019 38.1539 121.558 35.7693L126.019 17.1539C126.558 14.7693 122.865 13.8462 122.25 16.2308Z" fill="#FDC10E"/>
<path d="M133.327 39.2308L152.173 42.4616C154.558 42.8462 155.25 39.1539 152.788 38.6924L133.942 35.4616C131.558 35.077 130.865 38.8462 133.327 39.2308Z" fill="#FDC10E"/>
<path d="M134.712 31.9231L153.788 33.9231C156.25 34.1539 156.635 30.3846 154.173 30.1539L135.096 28.1539C132.635 27.9231 132.25 31.6923 134.712 31.9231Z" fill="#FDC10E"/>
<path d="M136.788 22.4616L155.404 26.9231C157.788 27.4616 158.635 23.7693 156.25 23.2308L137.635 18.7693C135.327 18.2308 134.404 21.9231 136.788 22.4616Z" fill="#FDC10E"/>
<path d="M9.40382 20.2309L6.17305 39.077C5.78844 41.4616 9.48075 42.1539 9.94229 39.6924L13.1731 20.8462C13.5577 18.4616 9.86536 17.7693 9.40382 20.2309Z" fill="#FDC10E"/>
<path d="M16.7116 21.6153L14.7116 40.6923C14.4808 43.1538 18.2501 43.5384 18.4808 41.0769L20.4808 21.9999C20.7885 19.6153 17.0193 19.1538 16.7116 21.6153Z" fill="#FDC10E"/>
<path d="M26.1731 23.6923L21.7116 42.3076C21.1731 44.6923 24.8654 45.5384 25.4039 43.1538L29.8654 24.6153C30.4808 22.2307 26.7885 21.3076 26.1731 23.6923Z" fill="#FDC10E"/>
<path d="M37.1731 46.6923L56.0192 49.9231C58.4038 50.3077 59.0962 46.6154 56.6346 46.1538L37.8654 42.9231C35.4808 42.5384 34.7885 46.2307 37.1731 46.6923Z" fill="#FDC10E"/>
<path d="M38.6346 39.3846L57.7115 41.3846C60.173 41.6154 60.5576 37.8461 58.0961 37.6154L39.0192 35.6154C36.5576 35.3077 36.173 39.0769 38.6346 39.3846Z" fill="#FDC10E"/>
<path d="M40.7114 29.9231L59.3268 34.3846C61.7114 34.9231 62.5576 31.2308 60.173 30.6923L41.5576 26.2308C39.173 25.6923 38.3268 29.3077 40.7114 29.9231Z" fill="#FDC10E"/>
<path d="M70.4038 33.0001L67.1731 51.8462C66.7884 54.2309 70.4807 54.9232 70.9423 52.4616L74.1731 33.6155C74.5577 31.2309 70.8654 30.6155 70.4038 33.0001Z" fill="#FDC10E"/>
<path d="M77.7885 34.3846L75.7885 53.4615C75.5577 55.9231 79.327 56.3077 79.5577 53.8462L81.5577 34.7692C81.7885 32.3846 78.0193 31.9231 77.7885 34.3846Z" fill="#FDC10E"/>
<path d="M87.1732 36.4615L82.7117 55.0769C82.1732 57.4615 85.8655 58.3077 86.404 55.9231L90.8655 37.3077C91.4809 35 87.7886 34.1539 87.1732 36.4615Z" fill="#FDC10E"/>
<path d="M98.2499 59.4615L117.096 62.6923C119.481 63.0769 120.173 59.3846 117.711 58.9231L98.8653 55.6923C96.4807 55.3077 95.7884 59.0769 98.2499 59.4615Z" fill="#FDC10E"/>
<path d="M99.6346 52.1539L118.711 54.1539C121.173 54.3847 121.558 50.6155 119.096 50.3847L100.019 48.3847C97.5576 48.1539 97.173 51.9232 99.6346 52.1539Z" fill="#FDC10E"/>
<path d="M101.712 42.6923L120.327 47.1539C122.712 47.6923 123.558 44 121.173 43.4616L102.558 39C100.25 38.4616 99.3269 42.1539 101.712 42.6923Z" fill="#FDC10E"/>
<path d="M131.635 46.3846L128.404 65.2308C128.019 67.6154 131.711 68.3077 132.173 65.8461L135.404 47C135.788 44.6154 132.096 44 131.635 46.3846Z" fill="#FDC10E"/>
<path d="M138.942 47.7693L136.942 66.8462C136.712 69.3077 140.481 69.6923 140.712 67.2308L142.712 48.1539C143.019 45.7693 139.25 45.3077 138.942 47.7693Z" fill="#FDC10E"/>
<path d="M148.404 49.8462L144.019 68.5385C143.481 70.9231 147.173 71.7693 147.712 69.3846L152.173 50.7693C152.635 48.3847 149.019 47.4616 148.404 49.8462Z" fill="#FDC10E"/>
<path d="M159.404 72.8461L178.25 76.0769C180.635 76.4615 181.327 72.7692 178.865 72.3076L160.019 69.0769C157.635 68.6922 157.019 72.3846 159.404 72.8461Z" fill="#FDC10E"/>
<path d="M160.788 65.5385L179.865 67.5385C182.327 67.7693 182.711 64.0001 180.25 63.7693L161.173 61.7693C158.788 61.4616 158.404 65.2308 160.788 65.5385Z" fill="#FDC10E"/>
<path d="M162.942 56.077L181.558 60.5385C183.942 61.077 184.788 57.3847 182.404 56.8462L163.788 52.3847C161.404 51.8462 160.558 55.5385 162.942 56.077Z" fill="#FDC10E"/>
</g>
<path d="M183.558 156.385C183.096 153.462 181.327 152 179.25 150.385C178.404 148 178.019 143.615 178.327 141.462C178.481 140.385 179.019 139.539 179.712 138.769L87.4039 179.923C87.3269 180.462 87.25 180.923 87.1731 181.462C87.1731 181.615 87.25 181.692 87.25 181.846C89.1731 187.846 95.8654 191.769 99.6346 196.769C102.558 200.615 101.712 201.231 99.6346 205.539C97.7116 209.462 99.8654 212.077 102.712 215C105.327 217.692 109.558 220.539 111.173 224C113.558 228.846 109.635 228.692 108.096 232.231C106.942 234.769 110.635 238.462 113.019 239.385C116.327 240.615 118.327 235.615 120.788 233.923C124.481 231.385 127.019 231.538 130.096 234.462C132.096 236.385 132.635 237.154 135.096 236.385C136.558 235.923 138.558 234.769 139.942 234C141.712 232.923 143.404 231.769 145.327 230.769C146.558 230.077 149.096 229.231 149.942 228.308C152.096 225.846 150.25 220.923 152.25 218.154C154.327 215.154 159.019 216.539 160.019 213.154C160.558 211.462 159.558 209.308 160.25 207.769C161.173 205.923 162.865 205.692 164.712 204.769C169.25 202.462 168.942 200.692 169.173 196C169.327 192.154 169.558 188.923 172.788 186.231C175.865 183.692 181.481 183 183.635 179.539C185.25 176.846 184.635 171.769 184.481 168.539C184.173 164.462 184.173 160.308 183.558 156.385Z" fill="#FDC10E"/>
<path d="M216.25 174.846C216.712 176.154 216.635 176.539 215.558 177.385C214.25 178.462 212.019 180.462 212.173 177.462C212.173 176.769 212.25 176.077 211.865 175.462C211.25 176 210.635 176.923 210.096 177.462C209.327 178.308 209.173 178.769 209.481 179.846C209.789 180.923 210.481 181.846 210.788 182.846C211.173 183.923 210.558 184.154 209.942 185C206.404 190 205.327 195.923 204.173 201.769C204.019 202.769 204.019 203.385 203.173 204C202.327 204.539 201.327 205 200.481 205.462C199.25 206.077 198.096 206.692 196.942 207.385C196.25 207.769 195.096 208.615 194.25 208.615C193.096 208.692 190.096 207 189.481 206C188.635 204.615 189.942 202.462 189.25 200.846C188.481 199.077 187.096 197.615 188.481 195.769C189.096 194.923 190.096 194.462 191.096 194.077C191.789 193.846 192.942 193.462 193.25 192.846C194.096 191.385 191.788 188.154 191.173 186.846C190.019 184.615 189.558 183.385 191.019 181.154C191.942 179.692 192.865 178.231 193.942 176.923C194.635 176.077 194.942 176 195.942 176.462C197.096 177 198.404 177.462 199.635 177.692C200.788 177.923 201.327 177.923 202.25 177.154C203.789 175.769 205.942 173.923 206.096 171.692C206.25 170.077 205.789 166.923 207.173 165.769C208.25 164.846 211.635 164.539 212.942 165.077C213.865 165.462 213.788 166.539 213.942 167.385C214.173 168.462 214.404 169.615 214.712 170.692C215.173 172.154 215.788 173.539 216.25 174.846Z" fill="#FDC10E"/>
<mask id="mask1" style="mask-type:alpha" maskUnits="userSpaceOnUse" x="87" y="138" width="98" height="102">
<path d="M183.558 156.385C183.096 153.462 181.327 152 179.25 150.385C178.404 148 178.019 143.615 178.327 141.462C178.481 140.385 179.019 139.539 179.712 138.769L87.4039 179.923C87.3269 180.462 87.25 180.923 87.1731 181.462C87.1731 181.615 87.25 181.692 87.25 181.846C89.1731 187.846 95.8654 191.769 99.6346 196.769C102.558 200.615 101.712 201.231 99.6346 205.539C97.7116 209.462 99.8654 212.077 102.712 215C105.327 217.692 109.558 220.539 111.173 224C113.558 228.846 109.635 228.692 108.096 232.231C106.942 234.769 110.635 238.462 113.019 239.385C116.327 240.615 118.327 235.615 120.788 233.923C124.481 231.385 127.019 231.538 130.096 234.462C132.096 236.385 132.635 237.154 135.096 236.385C136.558 235.923 138.558 234.769 139.942 234C141.712 232.923 143.404 231.769 145.327 230.769C146.558 230.077 149.096 229.231 149.942 228.308C152.096 225.846 150.25 220.923 152.25 218.154C154.327 215.154 159.019 216.539 160.019 213.154C160.558 211.462 159.558 209.308 160.25 207.769C161.173 205.923 162.865 205.692 164.712 204.769C169.25 202.462 168.942 200.692 169.173 196C169.327 192.154 169.558 188.923 172.788 186.231C175.865 183.692 181.481 183 183.635 179.539C185.25 176.846 184.635 171.769 184.481 168.539C184.173 164.462 184.173 160.308 183.558 156.385Z" fill="#FFA436"/>
</mask>
<g mask="url(#mask1)">
<path d="M140.788 194.077C134.173 182.538 127.558 171 120.865 159.462C120.019 158 117.711 159.308 118.558 160.769C124.942 171.923 131.327 183 137.788 194.154C126.404 199.923 115.019 205.769 103.711 211.538C100.173 203.769 96.6346 196 93.0961 188.154C100.404 184.846 107.711 181.538 115.096 178.231C117.173 182.923 119.327 187.538 121.404 192.231C117.019 194.154 112.635 196.077 108.25 198C107.327 195.615 106.404 193.154 105.481 190.769C105.25 190.154 104.558 189.615 103.865 189.846C103.25 190.077 102.635 190.769 102.942 191.462C104.019 194.308 105.096 197.077 106.173 199.923C106.25 200.154 106.404 200.385 106.635 200.615C107.019 201.154 107.711 201.154 108.327 200.923C113.327 198.692 118.327 196.538 123.404 194.308C123.635 194.308 123.788 194.231 123.942 194.154C124.635 193.769 124.711 193 124.404 192.308L117.019 175.923C116.788 175.462 116.327 175.231 115.788 175.308C115.481 175.308 115.25 175.308 114.942 175.462C106.865 179.154 98.7884 182.769 90.6346 186.462C90.0192 186.769 89.7884 187.692 90.173 188.308C90.2499 188.385 90.3269 188.538 90.4038 188.615C94.2499 197 98.0192 205.385 101.865 213.769C101.942 213.923 102.019 214 102.096 214.077C102.481 214.615 103.096 214.923 103.865 214.538L140.404 195.923C140.865 195.692 141.096 195.308 141.096 194.923C141.019 194.615 140.942 194.308 140.788 194.077Z" fill="#926D00"/>
<path d="M142.019 187C150.558 197.231 159.019 207.462 167.558 217.692C168.635 219 170.711 217.308 169.558 216C161.327 206.154 153.096 196.231 144.865 186.385C155.096 178.692 165.25 171.077 175.481 163.385C180.327 170.462 185.096 177.538 189.942 184.538C183.327 189.077 176.635 193.538 170.019 198.077C167.173 193.846 164.25 189.615 161.404 185.385C165.404 182.692 169.404 180.077 173.404 177.385C174.711 179.615 176.096 181.846 177.404 184.077C177.788 184.692 178.481 185.077 179.173 184.692C179.788 184.385 180.173 183.538 179.788 182.923C178.25 180.308 176.711 177.769 175.096 175.154C174.942 174.923 174.788 174.692 174.481 174.538C174.019 174.154 173.327 174.154 172.788 174.538C168.25 177.538 163.635 180.615 159.096 183.615C158.942 183.692 158.711 183.769 158.558 183.846C157.942 184.385 158.019 185.154 158.404 185.692L168.481 200.539C168.788 200.923 169.327 201.077 169.788 201C170.096 201 170.327 200.846 170.558 200.692C177.942 195.692 185.25 190.692 192.635 185.692C193.25 185.308 193.25 184.308 192.788 183.846C192.711 183.769 192.635 183.692 192.481 183.615C187.25 176 182.096 168.385 176.865 160.769C176.788 160.615 176.711 160.539 176.558 160.462C176.096 160 175.404 159.846 174.788 160.308L142.019 184.923C141.558 185.231 141.481 185.692 141.558 186.077C141.711 186.462 141.788 186.769 142.019 187Z" fill="#926D00"/>
<path d="M175.711 149.385C167.096 139.231 158.481 129.154 149.865 119C148.788 117.692 146.711 119.462 147.865 120.769C156.173 130.539 164.481 140.308 172.788 150.154C162.635 157.923 152.558 165.692 142.404 173.462C137.481 166.462 132.635 159.462 127.711 152.385C134.327 147.769 140.942 143.231 147.481 138.615C150.404 142.846 153.327 147 156.25 151.231C152.25 153.923 148.327 156.615 144.327 159.308C142.942 157.077 141.635 154.923 140.25 152.692C139.865 152.077 139.173 151.692 138.481 152.077C137.865 152.385 137.481 153.231 137.865 153.846C139.481 156.385 141.019 159 142.635 161.539C142.788 161.769 143.019 162 143.25 162.077C143.788 162.462 144.404 162.385 144.942 162.077C149.481 159 154.019 155.923 158.558 152.846C158.711 152.769 158.942 152.692 159.019 152.615C159.635 152.077 159.558 151.308 159.173 150.769L148.942 136C148.635 135.615 148.096 135.462 147.635 135.615C147.327 135.615 147.096 135.769 146.865 135.923C139.558 141 132.25 146.077 124.942 151.154C124.327 151.539 124.404 152.539 124.788 153C124.865 153.077 124.942 153.154 125.096 153.231C130.404 160.769 135.635 168.385 140.942 175.923C141.019 176.077 141.096 176.154 141.25 176.231C141.711 176.692 142.404 176.846 143.019 176.385L175.558 151.385C176.019 151.077 176.096 150.615 176.019 150.231C176.019 149.846 175.942 149.615 175.711 149.385Z" fill="#926D00"/>
<path d="M104.635 225.154C112.096 236.154 119.558 247.154 127.019 258.154C127.942 259.539 130.173 258.077 129.173 256.615C121.942 246 114.788 235.385 107.558 224.692C118.481 218.077 129.404 211.462 140.327 204.846C144.404 212.385 148.558 219.846 152.635 227.385C145.558 231.231 138.481 235.077 131.481 238.923C129.019 234.385 126.558 229.923 124.173 225.385C128.404 223.154 132.635 220.846 136.865 218.615C137.942 220.923 139.096 223.308 140.173 225.615C140.481 226.231 141.173 226.692 141.865 226.385C142.481 226.154 143.019 225.385 142.635 224.692C141.327 222 140.019 219.231 138.788 216.538C138.635 216.308 138.481 216.077 138.25 215.923C137.788 215.462 137.096 215.462 136.558 215.769C131.712 218.308 126.865 220.923 122.019 223.462C121.865 223.462 121.635 223.538 121.481 223.692C120.865 224.154 120.788 224.923 121.173 225.539L129.788 241.308C130.019 241.769 130.558 241.923 131.019 241.846C131.327 241.846 131.558 241.769 131.865 241.615C139.635 237.385 147.481 233.154 155.25 228.923C155.865 228.615 155.942 227.615 155.558 227.077C155.481 227 155.404 226.846 155.327 226.846C150.942 218.769 146.481 210.692 142.096 202.615C142.019 202.462 141.942 202.385 141.788 202.308C141.404 201.846 140.712 201.539 140.019 202L104.942 223.308C104.481 223.615 104.327 224 104.327 224.385C104.404 224.615 104.481 224.846 104.635 225.154Z" fill="#926D00"/>
</g>
<path d="M218.173 82.4615C216.173 80.7692 212.635 78.1538 210.404 79.923C208.019 81.6922 208.173 85.6922 205.942 87.7692C203.558 89.923 199.712 90.3845 196.635 90.6922C192.789 91.0768 193.173 89.4615 193.25 86.9999L3.78857 59.3076C3.40395 65.6153 2.32703 71.3845 1.32703 77.5384C0.250105 84.3076 5.63472 89.6922 8.94241 95.5384C10.5578 98.3845 11.9424 101.461 13.7886 104.077C15.8655 107 17.7116 106.615 21.1732 106.615C27.0193 106.692 33.1732 107.538 39.1732 107.923C40.6347 108 42.2501 108.154 43.2501 109.308C44.1732 110.308 43.7886 112.385 44.8655 113.231C46.8655 114.846 50.5578 112.923 52.7886 112.154C54.0963 111.769 55.8655 111.538 56.8655 110.692C59.0963 111.077 57.9424 107.385 58.404 105.923C59.1732 103.461 60.1732 103.692 62.5578 103.077C64.327 102.615 66.5578 101.846 68.5578 102C71.5578 102.308 70.7886 102.923 70.6347 105.769C70.4809 108.231 70.1732 109.615 72.7117 110.308C74.404 110.769 77.0963 110.461 78.7886 110.615C80.9424 110.769 82.0963 110.231 81.8655 112.461C81.7116 114.077 79.8655 116.308 79.1732 117.769C77.2501 121.692 76.327 123.846 78.9424 127.385C81.327 130.615 84.0193 133.615 86.404 136.846C88.7886 140.154 91.404 143.615 93.2501 147.077C95.4809 151.154 94.4809 153.769 93.5578 158.154C93.1732 159.846 92.7117 161.538 92.1732 163.154C92.1732 163.154 186.942 127.846 187.404 127.769C188.327 127.385 189.25 127.077 190.173 126.692C191.481 125.538 193.404 124.692 194.942 123.769C199.942 120.538 208.481 117.154 210.789 111.385C213.404 104.769 215.866 97.8461 218.404 91.0768C219.866 87.8461 221.173 85.0768 218.173 82.4615Z" fill="#312D22"/>
<mask id="mask2" style="mask-type:alpha" maskUnits="userSpaceOnUse" x="1" y="59" width="219" height="105">
<path d="M218.173 82.4615C216.173 80.7692 212.635 78.1538 210.404 79.923C208.019 81.6922 208.173 85.6922 205.942 87.7692C203.558 89.923 199.712 90.3845 196.635 90.6922C192.789 91.0768 193.173 89.4615 193.25 86.9999L3.78857 59.3076C3.40395 65.6153 2.32703 71.3845 1.32703 77.5384C0.250105 84.3076 5.63472 89.6922 8.94241 95.5384C10.5578 98.3845 11.9424 101.461 13.7886 104.077C15.8655 107 17.7116 106.615 21.1732 106.615C27.0193 106.692 33.1732 107.538 39.1732 107.923C40.6347 108 42.2501 108.154 43.2501 109.308C44.1732 110.308 43.7886 112.385 44.8655 113.231C46.8655 114.846 50.5578 112.923 52.7886 112.154C54.0963 111.769 55.8655 111.538 56.8655 110.692C59.0963 111.077 57.9424 107.385 58.404 105.923C59.1732 103.461 60.1732 103.692 62.5578 103.077C64.327 102.615 66.5578 101.846 68.5578 102C71.5578 102.308 70.7886 102.923 70.6347 105.769C70.4809 108.231 70.1732 109.615 72.7117 110.308C74.404 110.769 77.0963 110.461 78.7886 110.615C80.9424 110.769 82.0963 110.231 81.8655 112.461C81.7116 114.077 79.8655 116.308 79.1732 117.769C77.2501 121.692 76.327 123.846 78.9424 127.385C81.327 130.615 84.0193 133.615 86.404 136.846C88.7886 140.154 91.404 143.615 93.2501 147.077C95.4809 151.154 94.4809 153.769 93.5578 158.154C93.1732 159.846 92.7117 161.538 92.1732 163.154C92.1732 163.154 186.942 127.846 187.404 127.769C188.327 127.385 189.25 127.077 190.173 126.692C191.481 125.538 193.404 124.692 194.942 123.769C199.942 120.538 208.481 117.154 210.789 111.385C213.404 104.769 215.866 97.8461 218.404 91.0768C219.866 87.8461 221.173 85.0768 218.173 82.4615Z" fill="#CC3737"/>
</mask>
<g mask="url(#mask2)">
<path d="M192.404 104.692C189.019 104.692 189.019 110 192.404 110C195.789 110 195.789 104.692 192.404 104.692Z" fill="#FDC10E"/>
<path d="M209.481 108.846C206.096 108.846 206.096 114.154 209.481 114.154C212.865 114.154 212.865 108.846 209.481 108.846Z" fill="#FDC10E"/>
<path d="M225.096 93.2307C224.865 92.4615 224.173 92.1538 223.481 92.3076C202.173 95.8461 180.789 99.3845 159.481 102.923L95.7885 113.461C83.7885 115.461 71.8654 117.461 59.8654 119.385C59.1731 119.538 58.7885 120.385 58.9424 121C59.1731 121.769 59.8654 122.077 60.5577 121.923C81.8654 118.385 103.25 114.846 124.558 111.308L188.25 100.769C200.25 98.7692 212.173 96.7692 224.173 94.8461C224.865 94.7692 225.25 93.8461 225.096 93.2307Z" fill="#312D22"/>
<path d="M227.635 70.2307L213.712 87.2307C213.481 87.5384 213.173 87.6923 212.789 87.6923C212.481 87.7692 212.096 87.6922 211.789 87.4615L195.635 74.2307L182.404 90.3846C182.173 90.6923 181.866 90.8461 181.481 90.8461C181.404 90.8461 181.404 90.8461 181.404 90.8461C181.096 90.8461 180.789 90.7692 180.558 90.5384L164.558 77.3846L151.481 93.4615C151.25 93.7692 150.942 93.923 150.558 93.923C150.25 93.9999 149.866 93.923 149.558 93.6923L133.558 80.5384L120.481 96.6153C120.25 96.923 119.942 97.0769 119.558 97.0769C119.25 97.1538 118.866 97.0769 118.558 96.8461L102.712 83.8461L89.7117 99.7692C89.4809 100.077 89.1732 100.231 88.7886 100.231C88.4809 100.308 88.0963 100.231 87.7886 99.9999L71.6348 86.7692L58.404 102.923C58.1732 103.231 57.8655 103.385 57.4809 103.385C57.404 103.385 57.404 103.385 57.404 103.385C57.0963 103.385 56.7886 103.308 56.5579 103.077L40.5579 89.923L27.4809 106C27.2502 106.308 26.9425 106.461 26.5579 106.461C26.2502 106.538 25.8655 106.461 25.5579 106.231L9.55785 93.0769L-3.51907 109.154C-3.74984 109.461 -4.05753 109.615 -4.44215 109.615C-4.74984 109.692 -5.13445 109.615 -5.44215 109.385L-22.4421 95.3846C-22.9806 94.923 -23.0575 94.2307 -22.596 93.6923C-22.1345 93.1538 -21.4421 93.0769 -20.9037 93.5384L-4.74984 106.769L8.40401 90.6153C8.63478 90.3846 8.86555 90.2307 9.17324 90.1538C9.25016 90.1538 9.25016 90.1538 9.32709 90.1538C9.63478 90.1538 9.86555 90.2307 10.0963 90.4615L26.2502 103.692L39.3271 87.6923C39.404 87.5384 39.4809 87.4615 39.6348 87.3846C39.7117 87.3076 39.7886 87.3076 39.8655 87.2307C39.9425 87.2307 40.0194 87.1538 40.0963 87.1538C40.1732 87.1538 40.2502 87.1538 40.3271 87.1538H40.404C40.4809 87.1538 40.5579 87.1538 40.6348 87.1538H40.7117H40.7886C40.8656 87.1538 40.9425 87.2307 40.9425 87.2307C41.0963 87.3076 41.1732 87.3846 41.2502 87.4615L57.2502 100.538L70.404 84.3846C70.6348 84.0769 71.0194 83.923 71.3271 83.923C71.7117 83.8461 72.0194 83.923 72.3271 84.1538L88.4809 97.3846L101.096 81.923C101.096 81.6923 101.25 81.4615 101.404 81.3076C101.635 80.9999 102.019 80.8461 102.327 80.8461C102.712 80.7692 103.019 80.8461 103.327 81.0769C103.558 81.2307 103.635 81.4615 103.712 81.6153L119.173 94.2307L132.327 78.0769C132.558 77.8461 132.789 77.6923 133.096 77.6153C133.173 77.6153 133.173 77.6153 133.25 77.6153C133.481 77.6153 133.789 77.6923 134.019 77.923L150.173 91.1538L163.25 75.1538C163.327 74.9999 163.404 74.923 163.558 74.8461C163.635 74.7692 163.712 74.7692 163.789 74.6923C163.866 74.6923 163.942 74.6153 164.019 74.6153H164.096C164.173 74.6153 164.25 74.6153 164.327 74.6153H164.404C164.481 74.6153 164.558 74.6153 164.635 74.6153H164.712H164.789C164.866 74.6153 164.942 74.6923 164.942 74.6923C165.096 74.7692 165.173 74.8461 165.25 74.923L181.25 87.9999L194.404 71.8461C194.635 71.5384 195.019 71.3846 195.327 71.3846C195.712 71.3076 196.019 71.3846 196.327 71.6153L212.481 84.8461L225.635 68.6923C226.096 68.1538 226.789 68.0769 227.327 68.5384C227.942 68.923 228.096 69.6923 227.635 70.2307Z" fill="#926D00"/>
<path d="M267.481 84.6923L256.558 103.769C256.404 104.077 256.096 104.308 255.712 104.385C255.404 104.538 255.019 104.462 254.712 104.308L236.635 93.8461L226.25 111.923C226.096 112.231 225.789 112.462 225.404 112.538C225.404 112.538 225.327 112.538 225.327 112.615C225.019 112.692 224.712 112.615 224.404 112.462L206.481 102.077L196.096 120C195.943 120.308 195.635 120.538 195.25 120.615C194.943 120.769 194.558 120.692 194.25 120.538L176.327 110.154L166.019 128.154C165.866 128.462 165.558 128.692 165.173 128.769C164.866 128.923 164.481 128.846 164.173 128.692L146.404 118.462L136.173 136.154C136.019 136.462 135.712 136.692 135.327 136.769C135.019 136.923 134.635 136.846 134.327 136.692L116.25 126.231L105.866 144.308C105.712 144.615 105.404 144.846 105.019 144.923H104.943C104.635 145 104.327 144.923 104.019 144.769L86.0964 134.385L75.7887 152.308C75.6349 152.615 75.3272 152.846 74.9426 152.923C74.6349 153.077 74.2503 153 73.9426 152.846L56.0195 142.462L45.7118 160.462C45.558 160.769 45.2503 161 44.8656 161.077C44.558 161.231 44.1733 161.154 43.8656 161L24.7887 150C24.1733 149.615 24.0195 148.923 24.3272 148.308C24.7118 147.692 25.4041 147.538 26.0195 147.846L44.0195 158.308L54.4041 140.231C54.558 139.923 54.7887 139.769 55.0964 139.692C55.0964 139.692 55.1733 139.692 55.2503 139.615C55.481 139.538 55.7887 139.615 56.0964 139.769L74.1733 150.154L84.481 132.231C84.558 132.077 84.6349 131.923 84.7118 131.846C84.7887 131.769 84.8656 131.692 84.9426 131.615C85.0195 131.538 85.0964 131.538 85.1733 131.538C85.2503 131.538 85.3272 131.462 85.4041 131.462H85.481C85.5579 131.462 85.6349 131.462 85.7118 131.462H85.7887H85.8656C85.9426 131.462 86.0195 131.462 86.0195 131.538C86.1733 131.615 86.2503 131.615 86.4041 131.692L104.327 142L114.712 123.923C114.866 123.615 115.173 123.385 115.558 123.308C115.866 123.154 116.25 123.231 116.558 123.385L134.635 133.769L144.558 116.462C144.558 116.231 144.635 116 144.712 115.769C144.943 115.462 145.25 115.231 145.558 115.154C145.866 115 146.25 115.077 146.635 115.231C146.866 115.385 147.019 115.538 147.096 115.769L164.404 125.769L174.789 107.692C174.943 107.385 175.173 107.231 175.481 107.154C175.558 107.154 175.558 107.154 175.635 107.077C175.866 107 176.173 107.077 176.481 107.231L194.558 117.615L204.866 99.6923C204.943 99.5385 205.019 99.3846 205.096 99.3077C205.173 99.2308 205.25 99.1538 205.327 99.0769C205.404 99 205.481 99 205.558 99C205.635 99 205.712 98.9231 205.789 98.9231H205.866C205.943 98.9231 206.02 98.9231 206.096 98.9231H206.173H206.25C206.327 98.9231 206.404 98.9231 206.404 99C206.558 99.0769 206.635 99.0769 206.789 99.1538L224.712 109.462L235.096 91.3846C235.25 91.0769 235.558 90.8461 235.943 90.7692C236.25 90.6154 236.635 90.6923 236.943 90.8461L255.019 101.231L265.404 83.1538C265.712 82.5385 266.481 82.3846 267.096 82.6923C267.635 83.3846 267.789 84.0769 267.481 84.6923Z" fill="#926D00"/>
<path d="M26.2501 89.3845C22.8655 89.3845 22.8655 94.6922 26.2501 94.6922C29.6347 94.6922 29.6347 89.3845 26.2501 89.3845Z" fill="#FDC10E"/>
<path d="M43.0194 98.3846C39.6348 98.3846 39.6348 103.692 43.0194 103.692C46.404 103.692 46.404 98.3846 43.0194 98.3846Z" fill="#FDC10E"/>
<path d="M55.3272 85.923C51.9425 85.923 51.9425 91.2307 55.3272 91.2307C58.7887 91.2307 58.7887 85.923 55.3272 85.923Z" fill="#FDC10E"/>
<path d="M74.8655 94.7692C71.4809 94.7692 71.4809 100.077 74.8655 100.077C78.327 100.077 78.327 94.7692 74.8655 94.7692Z" fill="#FDC10E"/>
<path d="M85.1731 79.0769C81.7885 79.0769 81.7885 84.3846 85.1731 84.3846C88.6346 84.3846 88.6346 79.0769 85.1731 79.0769Z" fill="#FDC10E"/>
<path d="M102.712 90.6923C99.3271 90.6923 99.3271 96 102.712 96C106.096 96 106.173 90.6923 102.712 90.6923Z" fill="#FDC10E"/>
<path d="M114.327 79.6154C110.942 79.6154 110.942 84.923 114.327 84.923C117.712 84.923 117.789 79.6154 114.327 79.6154Z" fill="#FDC10E"/>
<path d="M135.327 88.4615C131.943 88.4615 131.943 93.7692 135.327 93.7692C138.789 93.7692 138.789 88.4615 135.327 88.4615Z" fill="#FDC10E"/>
<path d="M165.558 87C162.173 87 162.173 92.3077 165.558 92.3077C169.019 92.3077 169.019 87 165.558 87Z" fill="#FDC10E"/>
<path d="M103.635 129C100.25 129 100.25 134.308 103.635 134.308C107.019 134.308 107.096 129 103.635 129Z" fill="#FDC10E"/>
<path d="M121.712 135.692C118.327 135.692 118.327 141 121.712 141C125.096 141 125.096 135.692 121.712 135.692Z" fill="#FDC10E"/>
<path d="M134.404 121.308C131.019 121.308 131.019 126.615 134.404 126.615C137.789 126.615 137.789 121.308 134.404 121.308Z" fill="#FDC10E"/>
<path d="M150.866 127.769C147.481 127.769 147.481 133.077 150.866 133.077C154.25 133.077 154.25 127.769 150.866 127.769Z" fill="#FDC10E"/>
<path d="M163.404 111.692C160.019 111.692 160.019 117 163.404 117C166.789 117 166.789 111.692 163.404 111.692Z" fill="#FDC10E"/>
<path d="M181.712 118.308C178.327 118.308 178.327 123.615 181.712 123.615C185.096 123.615 185.096 118.308 181.712 118.308Z" fill="#FDC10E"/>
<path d="M149.327 65.2307C149.173 64.4615 148.481 64.0769 147.789 64.1538C126.25 65.6923 104.635 67.1538 83.0962 68.6923L18.7116 73.2307C6.63465 74.0769 -5.51919 74.9231 -17.5961 75.7692C-18.2884 75.8461 -18.75 76.6923 -18.673 77.3077C-18.5192 78.0769 -17.8269 78.4615 -17.1346 78.3846C4.40389 76.8461 26.0193 75.3846 47.5577 73.8461L111.942 69.3077C124.019 68.4615 136.173 67.6154 148.25 66.7692C148.942 66.7692 149.404 65.9231 149.327 65.2307Z" fill="#312D22"/>
</g>
</svg>
